# xmcd
#
# Track frame offsets:
#	150
#	30067
#	53412
#	67300
#	86487
#	103112
#	121122
#	141775
#	166012
#	185525
#	203055
#	221520
#	238857
#	257487
#	283167
#
# Disc length: 4021 seconds
#
# Revision: 3
# Processed by: cddbd v1.5.2PL0 Copyright (c) Steve Scherf et al.
# Submitted via: audiograbber 1.83.01
#
DISCID=cd0fb30f
DTITLE=Various Artist - SC8316
DYEAR=1900
DGENRE=Karaoke
TTITLE0=Adams, Bryan - Let's Make A Night To Remember
TTITLE1=Hole - Gold Dust Woman
TTITLE2=Superdrag - Sucked Out
TTITLE3=Browne, Jackson - I'm The Cat
TTITLE4=Bonham, Tracy - One, The
TTITLE5=Pearl Jam - Who You Are
TTITLE6=Dion, Celine - Falling Into You
TTITLE7=Brown, Horace - Things We Do For Love, The
TTITLE8=Brandy, Tamia, Gladys Knight and Chaka Khan - Missing You
TTITLE9=Republica - Ready To Go
TTITLE10=Once Blue - Save Me
TTITLE11=Crush - Jellyhead
TTITLE12=Braxtons, The - So Many Ways
TTITLE13=Chapman, Tracy - New Beginning
TTITLE14=Maxwell - Ascension
EXTD=
EXTT0=
EXTT1=
EXTT2=
EXTT3=
EXTT4=
EXTT5=
EXTT6=
EXTT7=
EXTT8=
EXTT9=
EXTT10=
EXTT11=
EXTT12=
EXTT13=
EXTT14=
PLAYORDER=
